<?xml version="1.0" encoding="utf-8"?>
<!-- Generator: Adobe Illustrator 24.0.1, SVG Export Plug-In . SVG Version: 6.00 Build 0)  -->
<svg version="1.1" id="Layer_1" xmlns="http://www.w3.org/2000/svg" xmlns:xlink="http://www.w3.org/1999/xlink" x="0px" y="0px"
	 viewBox="0 0 40 40" style="enable-background:new 0 0 40 40;" xml:space="preserve">
<style type="text/css">
	.st0{fill:#32DBF2;}
</style>
<path class="st0" d="M22.8,20L33.7,9.1c0.8-0.8,0.8-2,0-2.8s-2-0.8-2.8,0L20,17.2L9.1,6.3c-0.8-0.8-2-0.8-2.8,0s-0.8,2,0,2.8
	L17.2,20L6.3,30.9c-0.8,0.8-0.8,2,0,2.8s2,0.8,2.8,0L20,22.8l10.9,10.9c0.8,0.8,2,0.8,2.8,0s0.8-2,0-2.8L22.8,20z"/>
</svg>
