<?xml version="1.0" encoding="utf-8"?>
<!-- Generator: Adobe Illustrator 24.0.1, SVG Export Plug-In . SVG Version: 6.00 Build 0)  -->
<svg version="1.1" id="Layer_1" xmlns="http://www.w3.org/2000/svg" xmlns:xlink="http://www.w3.org/1999/xlink" x="0px" y="0px"
	 viewBox="0 0 35 22" style="enable-background:new 0 0 35 22;" xml:space="preserve">
<style type="text/css">
	.st0{fill:#32DBF2;}
</style>
<path class="st0" d="M33,3.9H10.4c-1.1,0-2-0.9-2-2v0c0-1.1,0.9-2,2-2H33c1.1,0,2,0.9,2,2v0C35,3,34.1,3.9,33,3.9z M35,20L35,20
	c0-1.1-0.9-2-2-2H20.6c-1.1,0-2,0.9-2,2v0c0,1.1,0.9,2,2,2H33C34.1,22,35,21.1,35,20z M35,11L35,11c0-1.1-0.9-2-2-2H2
	c-1.1,0-2,0.9-2,2v0c0,1.1,0.9,2,2,2H33C34.1,13,35,12.1,35,11z"/>
</svg>
